<svg xmlns="http://www.w3.org/2000/svg" width="16" height="24" fill="none" viewBox="0 0 16 24"><g clip-path="url(#clip0_218_13)"><path fill="#0ACF83" d="M4 24C6.208 24 8 22.208 8 20V16H4C1.792 16 0 17.792 0 20C0 22.208 1.792 24 4 24Z"/><path fill="#A259FF" d="M0 12C0 9.792 1.792 8 4 8H8V16H4C1.792 16 0 14.208 0 12Z"/><path fill="#F24E1E" d="M0 4C0 1.792 1.792 0 4 0H8V8H4C1.792 8 0 6.208 0 4Z"/><path fill="#FF7262" d="M8 0H12C14.208 0 16 1.792 16 4C16 6.208 14.208 8 12 8H8V0Z"/><path fill="#1ABCFE" d="M16 12C16 14.208 14.208 16 12 16C9.792 16 8 14.208 8 12C8 9.792 9.792 8 12 8C14.208 8 16 9.792 16 12Z"/></g><defs><clipPath id="clip0_218_13"><rect width="16" height="24" fill="#fff"/></clipPath></defs></svg>